<?xml version="1.0" encoding="UTF-8"?>
<!DOCTYPE svg PUBLIC "-//W3C//DTD SVG 1.1//EN" "http://www.w3.org/Graphics/SVG/1.1/DTD/svg11.dtd">
<!-- Creator: CorelDRAW 2020 (64-Bit) -->
<svg xmlns="http://www.w3.org/2000/svg" xml:space="preserve" width="70.1184mm" height="18.6975mm" version="1.1" shape-rendering="geometricPrecision" text-rendering="geometricPrecision" image-rendering="optimizeQuality" fill-rule="evenodd" clip-rule="evenodd"
viewBox="0 0 1496.31 399"
 xmlns:xlink="http://www.w3.org/1999/xlink"
 xmlns:xodm="http://www.corel.com/coreldraw/odm/2003">
 <g id="Layer_x0020_1">
  <metadata id="CorelCorpID_0Corel-Layer"/>
  <g id="_2787657998656">
   <g>
    <rect fill="none" stroke="#04A96D" stroke-width="10.67" stroke-miterlimit="22.9256" x="5.33" y="5.33" width="1485.64" height="388.33" rx="141.85" ry="194.17"/>
    <g>
     <g>
      <path fill="#04A96D" d="M231.59 242.18l-119.19 -29.76c-40.94,-10.22 -63.56,-44.34 -50.27,-75.82l0 -0c13.29,-31.48 57.65,-48.88 98.59,-38.66l119.19 29.76 -48.32 114.49z"/>
      <path fill="#04A96D" d="M231.6 242.18l62.25 83.65c21.38,28.73 69.44,38.78 106.79,22.34l0 -0c37.35,-16.44 50.42,-53.4 29.04,-82.13l-62.25 -83.65 -135.83 59.8z"/>
      <path fill="white" d="M155.46 181.04c-0.77,-0.63 17.63,14.71 37.75,22.32 17.83,6.74 37.04,6.3 37,6.39 -3.89,7.98 -18.54,14.9 -30.26,14.44 -20.92,-0.81 -33.88,-6.14 -47.18,-18.58 -11.89,-11.12 -20.42,-31.98 -20.57,-48.58 15.05,10.39 26.77,14.08 39.59,16.8 18.21,3.86 36.29,-0.76 54.77,10.27 8.6,5.13 2.65,8.43 8.43,9.27 7.87,1.14 13.14,-2.19 34.98,-3.66l-10.36 12.03c-7.21,8.37 -78.43,0.26 -104.14,-20.71z"/>
      <path fill="white" d="M256.37 246.59l51.68 69.44c17.75,23.85 55.55,33.12 84,20.59l0 -0c28.45,-12.52 37.2,-42.28 19.45,-66.13l-51.68 -69.44 -103.45 45.54z"/>
      <rect fill="white" x="135.85" y="128.47" width="53.72" height="12.91"/>
      <rect fill="white" transform="matrix(9.95785E-15 -0.290388 0.297336 6.01611E-15 154.318 155.58)" width="142.28" height="56.46"/>
      <rect fill="#04A96D" stroke="#04A96D" stroke-width="10.67" stroke-miterlimit="22.9256" transform="matrix(7.49114E-14 -2.91892 2.82849 7.73061E-14 343.348 356.071)" width="107.28" height="55.33" rx="27.67" ry="27.67"/>
      <path fill="white" d="M416.97 103.84c1.27,-0.62 -29.57,13.93 -47.71,32.21 -16.07,16.19 -20.28,35.64 -20.42,35.56 -12.57,-5.98 -20.55,-22.5 -16.75,-34.17 6.78,-20.83 19.19,-32.5 43.78,-42.66 21.98,-9.09 59.66,-12.28 87.93,-8.14 -21.55,12.46 -30.86,23.29 -38.8,35.48 -11.27,17.32 -8.08,36.7 -31.61,52.45 -10.95,7.33 -15.02,0.49 -17.93,6.08 -3.97,7.62 0.33,13.78 -2.81,36.13l-17.79 -13.53c-12.38,-9.41 19.81,-78.97 62.12,-99.41z"/>
      <path fill="white" d="M354 199.5l0 90.76c0,31.17 30.42,56.67 67.6,56.67l0 0c37.18,0 67.6,-25.5 67.6,-56.67l0 -90.76 -135.21 0z"/>
      <rect fill="#04A96D" x="389.13" y="265.41" width="64.96" height="15.61"/>
      <rect fill="#04A96D" transform="matrix(1.20909E-14 -0.351117 0.359518 7.3232E-15 411.456 298.198)" width="142.28" height="56.46"/>
      <path fill="#04A96D" fill-rule="nonzero" d="M466.86 102.33c4.65,0 6.99,0.74 6.99,2.22 0,0.41 -0.12,0.73 -0.36,0.98 -0.23,0.25 -0.69,0.54 -1.37,0.85 -0.58,0.28 -0.95,0.63 -1.11,1.09 -0.15,0.45 -0.23,1.35 -0.23,2.71 0,0.81 0.19,1.3 0.58,1.48 0.22,0.12 0.57,0.19 1.02,0.21 0.46,0.02 1.53,0.03 3.22,0.03 1.53,0 2.49,-0.06 2.87,-0.19 0.37,-0.12 0.56,-0.44 0.56,-0.95 0,-1.52 -0.09,-2.57 -0.27,-3.17 -0.18,-0.6 -0.53,-1.01 -1.05,-1.22 -0.66,-0.29 -1.09,-0.53 -1.3,-0.74 -0.21,-0.2 -0.31,-0.46 -0.31,-0.8 0,-0.47 0.23,-0.9 0.7,-1.28 0.46,-0.38 1.06,-0.65 1.81,-0.78 1.55,-0.29 3.5,-0.44 5.85,-0.44 2.74,0 4.77,0.19 6.08,0.58 1.31,0.38 1.97,0.98 1.97,1.8 0,0.69 -0.47,1.2 -1.39,1.55 -0.58,0.21 -0.96,0.41 -1.15,0.6 -0.18,0.19 -0.32,0.55 -0.42,1.06 -0.06,0.28 -0.14,1.56 -0.22,3.82 -0.09,2.26 -0.14,4.06 -0.14,5.39 0,2.33 0.11,3.81 0.34,4.45 0.11,0.34 0.25,0.58 0.41,0.69 0.15,0.12 0.62,0.35 1.41,0.69 0.57,0.24 0.86,0.61 0.86,1.11 0,0.87 -0.68,1.5 -2.03,1.9 -1.35,0.39 -3.54,0.6 -6.57,0.6 -2.66,0 -4.62,-0.21 -5.89,-0.61 -1.15,-0.36 -1.73,-0.93 -1.73,-1.71 0,-0.65 0.44,-1.17 1.32,-1.53 0.44,-0.18 0.73,-0.36 0.89,-0.55 0.15,-0.18 0.31,-0.52 0.46,-1.01 0.27,-0.96 0.41,-2.15 0.41,-3.55 0,-0.72 -0.14,-1.17 -0.41,-1.34 -0.28,-0.18 -1,-0.26 -2.17,-0.26 -2.67,0 -4.37,0.11 -5.1,0.34 -0.3,0.09 -0.49,0.36 -0.56,0.81 -0.09,0.55 -0.14,1.23 -0.14,2.03 0,1.3 0.24,2.24 0.72,2.82 0.16,0.18 0.55,0.42 1.16,0.71 0.63,0.28 0.94,0.73 0.94,1.36 0,0.8 -0.73,1.42 -2.17,1.84 -1.44,0.42 -3.52,0.64 -6.2,0.64 -2.45,0 -4.45,-0.2 -6.01,-0.59 -0.67,-0.17 -1.19,-0.42 -1.57,-0.73 -0.38,-0.31 -0.57,-0.66 -0.57,-1.04 0,-0.38 0.12,-0.67 0.36,-0.87 0.24,-0.21 0.76,-0.47 1.57,-0.79 0.42,-0.16 0.71,-0.36 0.89,-0.62 0.17,-0.25 0.3,-0.68 0.39,-1.27 0.22,-1.35 0.34,-3.1 0.34,-5.28 0,-0.4 -0.01,-0.87 -0.02,-1.43 -0.06,-2.76 -0.09,-4.33 -0.09,-4.72 0.01,-0.99 -0.09,-1.63 -0.32,-1.95 -0.23,-0.32 -0.84,-0.66 -1.83,-1.04 -0.66,-0.24 -0.99,-0.61 -0.99,-1.09 0,-1.16 1.47,-1.97 4.39,-2.41 1.7,-0.26 3.45,-0.4 5.24,-0.4z"/>
      <path fill="#04A96D" fill-rule="nonzero" d="M466.82 159.82l-1.61 0c-0.94,0 -2,0.04 -3.16,0.11 -0.73,0.04 -1.24,0.06 -1.52,0.06 -1,0 -1.82,-0.18 -2.44,-0.54 -0.63,-0.35 -0.94,-0.82 -0.94,-1.39 0,-0.4 0.14,-0.71 0.41,-0.93 0.28,-0.23 0.74,-0.41 1.36,-0.55 0.6,-0.11 0.99,-0.3 1.21,-0.56 0.21,-0.26 0.38,-0.76 0.49,-1.5 0.12,-0.86 0.23,-2.54 0.33,-5.03 0.09,-2.49 0.15,-4.97 0.15,-7.43 0,-0.96 -0.1,-1.6 -0.29,-1.93 -0.2,-0.32 -0.65,-0.58 -1.37,-0.77 -1.03,-0.3 -1.54,-0.81 -1.54,-1.53 0,-0.57 0.35,-1.01 1.06,-1.32 0.71,-0.32 1.7,-0.48 2.97,-0.48 0.42,0 0.91,0.01 1.48,0.02 1.25,0.03 2.16,0.05 2.73,0.05 2.13,0 4.55,-0.05 7.23,-0.16 0.57,-0.02 1.28,-0.03 2.13,-0.03 3.41,0 6.12,0.29 8.1,0.89 2.96,0.89 5.18,2.4 6.67,4.51 1.33,1.86 1.99,4.08 1.99,6.65 0,1.3 -0.24,2.6 -0.74,3.9 -0.49,1.31 -1.15,2.43 -2,3.39 -1.73,1.93 -4.12,3.28 -7.16,4.06 -1.79,0.46 -3.7,0.69 -5.73,0.69l-2.71 -0.06 -2.32 -0.05c-1.81,-0.05 -3.4,-0.07 -4.77,-0.07zm4.7 -18.67l0 13.33c0,0.72 0.2,1.24 0.6,1.54 0.41,0.31 1.08,0.46 2.02,0.46 4.36,0 6.53,-2.55 6.53,-7.65 0,-2.82 -0.5,-5 -1.52,-6.54 -1.12,-1.71 -3.02,-2.57 -5.69,-2.57 -0.72,0 -1.22,0.11 -1.51,0.33 -0.29,0.22 -0.44,0.58 -0.44,1.1z"/>
      <path fill="#04A96D" fill-rule="nonzero" d="M469.09 169.89l11.8 0c1.27,-0.04 2.43,-0.16 3.47,-0.39 0.45,-0.09 0.85,-0.14 1.19,-0.14 1.21,0 2.39,0.69 3.52,2.07 1.14,1.37 1.71,2.79 1.71,4.25 0,1 -0.4,1.73 -1.19,2.19 -0.6,0.35 -1.31,0.52 -2.15,0.52 -0.79,0 -1.48,-0.17 -2.06,-0.51 -0.58,-0.34 -1.15,-0.9 -1.73,-1.68 -0.49,-0.71 -0.88,-1.18 -1.16,-1.39 -0.28,-0.22 -0.63,-0.33 -1.03,-0.33 -0.55,0 -0.95,0.18 -1.18,0.54 -0.23,0.36 -0.36,0.94 -0.36,1.76l0 9.64c0,0.99 0.14,1.71 0.41,2.16 0.27,0.45 0.77,0.79 1.52,1.03 0.81,0.26 1.35,0.51 1.64,0.74 0.3,0.24 0.44,0.56 0.44,0.98 0,0.82 -0.74,1.44 -2.19,1.84 -1.45,0.4 -3.69,0.6 -6.71,0.61 -3.7,-0.01 -6.44,-0.24 -8.24,-0.71 -1.51,-0.39 -2.26,-1.02 -2.26,-1.89 0,-0.47 0.27,-0.83 0.81,-1.1 0.13,-0.06 0.66,-0.2 1.59,-0.42 0.57,-0.12 0.96,-0.36 1.18,-0.72 0.21,-0.35 0.39,-1.04 0.53,-2.05 0.11,-0.9 0.23,-2.35 0.34,-4.35 0.1,-2 0.15,-3.74 0.15,-5.21 0,-1.03 -0.1,-1.77 -0.31,-2.2 -0.21,-0.44 -0.55,-0.66 -1.03,-0.66 -0.58,0 -1.15,0.32 -1.7,0.96 -1,1.18 -1.83,1.95 -2.47,2.33 -0.76,0.45 -1.5,0.67 -2.22,0.67 -0.8,0 -1.47,-0.23 -1.99,-0.7 -0.53,-0.47 -0.79,-1.06 -0.79,-1.78 0,-0.71 0.2,-1.49 0.63,-2.35 0.42,-0.85 0.98,-1.64 1.68,-2.36 1.13,-1.18 2.26,-1.76 3.35,-1.76 0.3,0 0.64,0.03 1.03,0.1 0.8,0.13 1.47,0.21 1.98,0.26 0.52,0.05 1.11,0.07 1.78,0.07z"/>
     </g>
     <g>
      <g>
       <path fill="#04A96D" fill-rule="nonzero" d="M591.55 65.77l31.03 19.26c2.89,1.79 4.99,2.7 6.27,2.7 2.17,0 3.25,-1.64 3.25,-4.92 0,-3.71 -0.32,-6.24 -0.94,-7.59 -0.62,-1.36 -1.93,-2.38 -3.94,-3.06 -1.62,-0.56 -2.76,-1.15 -3.42,-1.78 -0.66,-0.63 -1,-1.45 -1,-2.46 0,-2.47 2.4,-4.06 7.17,-4.77 1.95,-0.3 5.36,-0.45 10.23,-0.45 6.27,0 10.61,0.27 13.02,0.8 3.83,0.83 5.72,2.38 5.72,4.69 0,1.92 -1.55,3.35 -4.66,4.33 -1.25,0.38 -2.11,0.73 -2.55,1.01 -0.47,0.3 -0.85,0.74 -1.19,1.33 -1.12,1.95 -1.7,5.63 -1.74,11.05l0 14.4c0,2.2 0.02,5.22 0.06,9.05 0.04,5.19 -0.4,8.93 -1.32,11.22 -1.11,2.87 -3.15,4.28 -6.11,4.3 -1.28,-0.01 -2.4,-0.2 -3.34,-0.59 -0.92,-0.38 -2.47,-1.27 -4.64,-2.64l-36.94 -23.47c-2.57,-1.64 -4.72,-2.47 -6.42,-2.47 -2.53,0 -3.81,2.49 -3.81,7.46 0,4.09 0.34,6.89 0.98,8.4 0.64,1.49 1.95,2.61 3.95,3.3 2.78,0.98 4.17,2.25 4.17,3.8 0,4.1 -6.21,6.15 -18.63,6.15 -5.59,0 -9.95,-0.53 -13.06,-1.57 -3.08,-1.06 -4.64,-2.53 -4.64,-4.45 0,-0.99 0.3,-1.75 0.87,-2.25 0.57,-0.5 1.89,-1.18 3.94,-2.04 1.95,-0.83 3.13,-2.28 3.55,-4.37 0.7,-3.8 1.06,-9.26 1.06,-16.39 0,-7.6 -0.64,-13.13 -1.87,-16.62 -0.47,-1.27 -1.04,-2.2 -1.75,-2.82 -0.72,-0.62 -1.87,-1.21 -3.49,-1.76 -1.87,-0.65 -3.17,-1.28 -3.91,-1.9 -0.73,-0.62 -1.09,-1.37 -1.09,-2.26 0,-2.82 3.42,-4.6 10.29,-5.34 2.32,-0.24 6.38,-0.36 12.2,-0.36 3.32,0 5.74,0.19 7.25,0.56 1.51,0.36 3.32,1.21 5.4,2.5z"/>
       <path id="1" fill="#04A96D" fill-rule="nonzero" d="M697.69 65.82l-0.81 18.51c-0.09,2.22 0.87,3.32 2.87,3.32 1,0 1.98,-0.48 2.93,-1.46 4.02,-4.15 9.4,-6.23 16.12,-6.23 6.61,0 11.87,1.43 15.78,4.28 1.75,1.27 2.98,2.77 3.7,4.51 0.72,1.73 1.12,4.22 1.21,7.46l0.55 15.96c0.04,1.39 0.32,2.4 0.79,3.05 0.49,0.65 1.6,1.46 3.34,2.43 1.19,0.68 1.81,1.49 1.81,2.43 0,3.18 -6.78,4.78 -20.31,4.78 -12.06,0 -18.07,-1.49 -18.07,-4.46 0,-0.51 0.1,-0.89 0.32,-1.16 0.19,-0.26 0.94,-0.96 2.17,-2.11 1.74,-1.63 2.62,-5.67 2.62,-12.16 0,-3.92 -0.51,-6.77 -1.55,-8.57 -1.36,-2.44 -3.83,-3.66 -7.36,-3.66 -2.53,0 -4.4,0.65 -5.59,1.94 -0.87,0.93 -1.32,2.7 -1.32,5.29l0 8.54c0.3,3.77 0.55,5.9 0.74,6.4 0.22,0.51 1.17,1.43 2.87,2.79 0.79,0.62 1.19,1.34 1.19,2.17 0,3.32 -6.11,4.99 -18.33,4.99 -14.27,0 -21.41,-1.73 -21.41,-5.17 0,-0.8 0.21,-1.4 0.68,-1.84 0.45,-0.42 1.57,-1.09 3.36,-1.96 1.57,-0.8 2.68,-2.94 3.27,-6.43 0.6,-3.5 0.89,-9.27 0.89,-17.34 0,-6.33 -0.23,-10.72 -0.74,-13.17 -0.17,-0.92 -0.47,-1.58 -0.89,-2.02 -0.45,-0.42 -1.25,-0.86 -2.47,-1.3 -2.57,-0.95 -3.87,-2.04 -3.87,-3.27 0,-1.48 0.98,-2.67 2.93,-3.57 1.96,-0.92 5.7,-1.9 11.21,-2.96 7.49,-1.48 13.44,-2.22 17.89,-2.22 2.4,0 3.57,0.74 3.49,2.22z"/>
       <path id="2" fill="#04A96D" fill-rule="nonzero" d="M785.22 79.9c7.23,0 13.35,1.3 18.37,3.89 2.66,1.39 4.53,2.97 5.59,4.75 1.04,1.78 1.57,4.24 1.57,7.36l-0.13 6.57c0,4.57 0.47,7.53 1.38,8.88 0.45,0.65 0.89,1.05 1.32,1.24 0.4,0.18 1.27,0.33 2.61,0.48 1.32,0.15 1.98,0.77 1.98,1.86 0,1.42 -0.79,2.9 -2.4,4.42 -1.59,1.54 -3.66,2.82 -6.19,3.85 -3.12,1.3 -6.38,1.94 -9.78,1.94 -4.36,0 -7.81,-1.05 -10.34,-3.18 -0.87,-0.77 -1.68,-1.15 -2.45,-1.15 -0.83,0 -1.91,0.36 -3.29,1.1 -4.15,2.16 -8.87,3.23 -14.14,3.23 -5.44,0 -9.85,-0.83 -13.21,-2.47 -2.19,-1.09 -3.96,-2.52 -5.23,-4.27 -1.3,-1.75 -1.94,-3.57 -1.94,-5.49 0,-3.08 1.75,-5.78 5.23,-8.15 5.44,-3.71 13.59,-5.58 24.43,-5.61 2.4,0 3.91,-0.16 4.55,-0.5 0.62,-0.35 0.92,-1.13 0.92,-2.37 0,-3.12 -0.45,-5.39 -1.36,-6.79 -0.91,-1.39 -2.4,-2.1 -4.49,-2.1 -1.25,0 -2.36,0.27 -3.34,0.8 -0.98,0.53 -2.19,1.49 -3.64,2.91 -3.7,3.74 -7.57,5.61 -11.59,5.61 -2.04,0 -3.7,-0.42 -4.98,-1.28 -1.3,-0.85 -1.94,-1.98 -1.94,-3.35 0,-1.42 0.79,-2.84 2.4,-4.25 1.6,-1.4 3.76,-2.64 6.51,-3.71 7.51,-2.82 15.35,-4.24 23.54,-4.24zm-4.17 25.58c-1.83,0 -3.42,0.53 -4.76,1.6 -1.36,1.05 -2.02,2.32 -2.02,3.8 0,1.42 0.47,2.55 1.43,3.42 0.96,0.86 2.21,1.3 3.81,1.3 3.32,0 4.98,-1.99 4.98,-5.96 0,-1.63 -0.23,-2.71 -0.73,-3.27 -0.47,-0.56 -1.38,-0.86 -2.7,-0.89zm-4.06 -44.72c2.96,0 5.38,0.26 7.27,0.74 1.87,0.48 2.83,1.12 2.83,1.87 0,0.24 -0.21,0.63 -0.62,1.19 -0.21,0.27 -0.32,0.54 -0.32,0.8 0,0.42 0.21,0.77 0.62,1.09 0.42,0.3 1.55,0.95 3.43,1.92 2.08,1.13 3.34,1.88 3.78,2.28 0.42,0.41 0.64,0.99 0.64,1.79 0,2.17 -2.13,3.27 -6.4,3.27 -7.61,0 -14.55,-1.72 -20.82,-5.17 -3.53,-1.92 -5.3,-3.56 -5.3,-4.95 0,-1.39 1.4,-2.53 4.23,-3.45 2.83,-0.9 6.38,-1.37 10.65,-1.37z"/>
       <path id="3" fill="#04A96D" fill-rule="nonzero" d="M890.89 91.53l0 14.93c0,1.76 0.6,3.21 1.83,4.33 1.23,1.12 2.78,1.68 4.7,1.68 1.62,0 3.76,-0.53 6.43,-1.58 0.62,-0.27 1.25,-0.41 1.87,-0.41 1,0 1.91,0.44 2.74,1.28 0.83,0.86 1.24,1.79 1.24,2.79 0,1.82 -1.4,3.57 -4.23,5.26 -5.89,3.56 -13.03,5.34 -21.44,5.34 -6.63,0 -11.97,-1.33 -16.02,-4 -4.02,-2.67 -6.04,-6.18 -6.04,-10.54l0 -20.41c0,-0.68 -0.1,-1.1 -0.34,-1.27 -0.23,-0.17 -0.81,-0.24 -1.77,-0.24l-6.42 0c-1.21,0 -1.98,-0.14 -2.32,-0.42 -0.32,-0.27 -0.49,-0.93 -0.49,-1.96l0 -1.95c0.04,-0.89 0.51,-1.54 1.43,-1.94l28.54 -12.73c0.7,-0.26 1.57,-0.39 2.61,-0.39l5.06 0c1.02,0 1.72,0.17 2.08,0.51 0.34,0.33 0.53,1.01 0.53,2.01l0 5.96c0,0.89 0.19,1.46 0.57,1.73 0.4,0.26 1.25,0.39 2.53,0.39l11.53 0c1.53,0 2.53,0.2 3,0.6 0.45,0.39 0.68,1.24 0.68,2.53l0 2.61c0,1.42 -0.3,2.4 -0.87,2.94 -0.57,0.54 -1.64,0.82 -3.19,0.82l-11.27 0c-1.15,0 -1.95,0.15 -2.36,0.44 -0.43,0.3 -0.62,0.86 -0.62,1.69z"/>
       <path id="4" fill="#04A96D" fill-rule="nonzero" d="M948.01 65.82l-0.81 18.51c-0.09,2.22 0.87,3.32 2.87,3.32 1,0 1.98,-0.48 2.93,-1.46 4.02,-4.15 9.4,-6.23 16.12,-6.23 6.62,0 11.87,1.43 15.78,4.28 1.75,1.27 2.97,2.77 3.7,4.51 0.72,1.73 1.13,4.22 1.21,7.46l0.55 15.96c0.04,1.39 0.32,2.4 0.79,3.05 0.49,0.65 1.59,1.46 3.34,2.43 1.19,0.68 1.81,1.49 1.81,2.43 0,3.18 -6.78,4.78 -20.31,4.78 -12.06,0 -18.08,-1.49 -18.08,-4.46 0,-0.51 0.11,-0.89 0.32,-1.16 0.19,-0.26 0.93,-0.96 2.17,-2.11 1.75,-1.63 2.62,-5.67 2.62,-12.16 0,-3.92 -0.51,-6.77 -1.55,-8.57 -1.36,-2.44 -3.83,-3.66 -7.36,-3.66 -2.53,0 -4.4,0.65 -5.59,1.94 -0.87,0.93 -1.32,2.7 -1.32,5.29l0 8.54c0.3,3.77 0.55,5.9 0.74,6.4 0.21,0.51 1.17,1.43 2.87,2.79 0.79,0.62 1.19,1.34 1.19,2.17 0,3.32 -6.11,4.99 -18.33,4.99 -14.27,0 -21.42,-1.73 -21.42,-5.17 0,-0.8 0.21,-1.4 0.68,-1.84 0.45,-0.42 1.57,-1.09 3.36,-1.96 1.57,-0.8 2.68,-2.94 3.27,-6.43 0.6,-3.5 0.89,-9.27 0.89,-17.34 0,-6.33 -0.23,-10.72 -0.74,-13.17 -0.17,-0.92 -0.47,-1.58 -0.89,-2.02 -0.45,-0.42 -1.25,-0.86 -2.47,-1.3 -2.57,-0.95 -3.87,-2.04 -3.87,-3.27 0,-1.48 0.98,-2.67 2.93,-3.57 1.95,-0.92 5.7,-1.9 11.21,-2.96 7.49,-1.48 13.44,-2.22 17.88,-2.22 2.4,0 3.57,0.74 3.49,2.22z"/>
       <path id="5" fill="#04A96D" fill-rule="nonzero" d="M1034.12 82.47l0 23.95c0,5.13 2.38,7.69 7.16,7.69 1.19,0 2.38,-0.24 3.56,-0.74 1.15,-0.48 1.98,-1.07 2.42,-1.78 0.91,-1.42 1.36,-4.57 1.36,-9.46 0,-4.84 -0.21,-8.13 -0.68,-9.91 -0.17,-0.72 -0.44,-1.27 -0.87,-1.6 -0.41,-0.35 -1.19,-0.74 -2.36,-1.18 -2.36,-0.89 -3.55,-2.01 -3.55,-3.36 0,-1.82 2.04,-3.09 6.1,-3.8 7.72,-1.36 15.35,-2.02 22.86,-2.02 4.19,0 6.3,1.57 6.3,4.72 0,0.32 -0.02,0.98 -0.07,1.99 -0.08,1.42 -0.15,3.14 -0.19,5.17l0 19.49c0,0.99 1.21,1.92 3.61,2.73 2.04,0.71 3.06,1.73 3.06,3.09 0,2.65 -4.42,4.71 -13.27,6.15 -5.19,0.85 -10.23,1.27 -15.08,1.28 -2,-0.01 -3.36,-0.17 -4.08,-0.5 -0.72,-0.32 -1.15,-0.95 -1.28,-1.9 -0.21,-1.82 -1,-2.73 -2.36,-2.73 -0.51,0 -0.96,0.08 -1.38,0.24 -0.4,0.17 -1.68,0.76 -3.81,1.78 -4.19,2.04 -8.7,3.06 -13.5,3.06 -7.97,0 -13.61,-1.64 -16.88,-4.92 -2.79,-2.73 -4.19,-7.35 -4.19,-13.83 0,-2.41 0.02,-4.48 0.06,-6.18 0,-1 0,-1.68 0,-2.04 0,-2.54 -0.32,-4.39 -0.96,-5.58 -0.64,-1.19 -1.83,-2.13 -3.53,-2.81 -1.62,-0.59 -2.64,-1.06 -3.08,-1.42 -0.42,-0.35 -0.64,-0.85 -0.64,-1.46 0,-2.23 2.38,-3.72 7.17,-4.46 8.12,-1.25 16.27,-1.88 24.41,-1.88 2.45,0 3.68,0.72 3.68,2.2z"/>
       <path id="6" fill="#04A96D" fill-rule="nonzero" d="M1125.01 79.9c7.59,0 14.27,1.4 19.99,4.19 4.12,2.01 7.42,4.62 9.91,7.83 2.57,3.36 3.87,6.86 3.87,10.51 0,6.39 -4.15,11.82 -12.4,16.3 -7.89,4.27 -16.92,6.41 -27.11,6.41 -9.91,0 -17.94,-2.01 -24.09,-6 -6,-3.89 -8.97,-8.96 -8.97,-15.2 0,-6.95 3.66,-12.64 10.95,-17.06 7.66,-4.66 16.93,-6.98 27.86,-6.98zm-5 10.21c-1.83,0 -3.28,0.48 -4.38,1.43 -1.11,0.97 -1.66,2.23 -1.66,3.82 0,1.78 0.47,4.18 1.4,7.23 0.94,3.06 2.04,5.76 3.34,8.11 1.28,2.41 3.38,3.62 6.3,3.62 3.7,0 5.55,-1.66 5.55,-4.99 0,-2.47 -0.47,-5.28 -1.4,-8.43 -0.93,-3.15 -2.08,-5.71 -3.4,-7.69 -1.36,-2.01 -3.28,-3.03 -5.74,-3.09z"/>
       <path id="7" fill="#04A96D" fill-rule="nonzero" d="M1198.76 79.95c7.4,0 13.93,1.31 19.57,3.94 5.36,2.5 8.04,5.61 8.04,9.32 0,2.56 -1.23,4.64 -3.74,6.23 -2.32,1.51 -5.13,2.25 -8.4,2.25 -3.44,0 -6.04,-0.87 -7.78,-2.64 -0.55,-0.56 -1.34,-1.99 -2.38,-4.3 -1.11,-2.47 -3.26,-3.71 -6.4,-3.71 -2.3,0 -4.21,0.71 -5.76,2.13 -1.57,1.42 -2.34,3.15 -2.34,5.22 0,3.53 1.78,6.67 5.36,9.41 2.89,2.2 6.55,3.3 10.95,3.3 2.08,0 3.83,-0.12 5.23,-0.36 1.42,-0.26 3.27,-0.77 5.55,-1.54 0.57,-0.2 1.23,-0.3 1.93,-0.3 1.4,0 2.66,0.47 3.75,1.42 1.06,0.93 1.62,2.04 1.62,3.3 0,1.33 -0.77,2.73 -2.32,4.18 -1.53,1.46 -3.53,2.73 -6.04,3.83 -5.4,2.35 -11.76,3.53 -19.12,3.53 -8.55,0 -15.85,-1.76 -21.86,-5.29 -7.74,-4.48 -11.59,-10.18 -11.59,-17.1 0,-6.66 3.59,-12.17 10.76,-16.53 6.87,-4.18 15.18,-6.27 24.99,-6.27z"/>
       <path fill="#04A96D" fill-rule="nonzero" d="M1157.41 45.27c3.79,0 7.15,0.41 10.08,1.21 1.47,0.38 2.64,0.92 3.55,1.63 0.92,0.71 1.36,1.42 1.32,2.13 -0.09,1.34 -1.85,2.96 -5.3,4.81 -6.27,3.45 -13.21,5.17 -20.82,5.17 -4.27,0 -6.4,-1.1 -6.4,-3.28 0,-0.8 0.21,-1.39 0.64,-1.79 0.45,-0.39 1.7,-1.15 3.79,-2.28 1.87,-0.96 3,-1.61 3.42,-1.91 0.41,-0.32 0.62,-0.67 0.62,-1.09 0,-0.26 -0.25,-0.71 -0.74,-1.33 -0.17,-0.19 -0.26,-0.42 -0.26,-0.66 0,-0.72 0.94,-1.34 2.81,-1.82 1.87,-0.48 4.3,-0.76 7.29,-0.79z"/>
       <path fill="#04A96D" fill-rule="nonzero" d="M1122.71 58.97c1.38,0 3.6,0.6 6.68,1.82 3.06,1.22 6.23,2.73 9.47,4.54 2.91,1.62 4.91,2.9 6.02,3.85 1.11,0.93 1.66,1.84 1.66,2.68 0,0.89 -0.47,1.68 -1.38,2.35 -0.92,0.67 -1.98,1.01 -3.17,1.01 -1.7,0 -5.13,-0.89 -10.3,-2.65 -1.57,-0.53 -3.32,-1.04 -5.23,-1.52 -1.92,-0.48 -3.15,-0.72 -3.75,-0.72 -1.45,0 -4.4,0.83 -8.85,2.52 -4.36,1.65 -7.51,2.48 -9.46,2.48 -1.41,0 -2.55,-0.33 -3.45,-1 -0.89,-0.66 -1.34,-1.52 -1.34,-2.59 0,-0.96 0.68,-2.02 2.04,-3.15 1.38,-1.13 3.77,-2.61 7.17,-4.44 6.45,-3.45 11.08,-5.17 13.89,-5.17z"/>
      </g>
      <path fill="#04A96D" fill-rule="nonzero" d="M635.38 166.45c37.05,0 55.61,5.79 55.61,17.37 0,3.17 -0.97,5.7 -2.86,7.68 -1.89,1.98 -5.54,4.18 -10.89,6.62 -4.63,2.16 -7.54,4.96 -8.82,8.5 -1.22,3.49 -1.83,10.57 -1.83,21.23 0,6.3 1.52,10.16 4.62,11.58 1.76,0.92 4.5,1.47 8.09,1.65 3.65,0.14 12.17,0.23 25.61,0.23 12.23,0 19.83,-0.46 22.81,-1.47 2.92,-0.96 4.44,-3.45 4.44,-7.4 0,-11.86 -0.73,-20.08 -2.13,-24.77 -1.46,-4.69 -4.26,-7.86 -8.4,-9.56 -5.23,-2.25 -8.7,-4.14 -10.34,-5.74 -1.65,-1.56 -2.49,-3.63 -2.49,-6.25 0,-3.68 1.82,-7.03 5.54,-10.02 3.65,-2.99 8.46,-5.05 14.42,-6.11 12.35,-2.25 27.87,-3.4 46.54,-3.4 21.84,0 37.97,1.52 48.37,4.55 10.41,2.99 15.64,7.67 15.64,14.06 0,5.38 -3.71,9.42 -11.08,12.09 -4.62,1.65 -7.66,3.17 -9.12,4.64 -1.4,1.52 -2.55,4.27 -3.34,8.32 -0.49,2.21 -1.1,12.18 -1.77,29.87 -0.73,17.69 -1.09,31.71 -1.09,42.14 0,18.24 0.91,29.78 2.68,34.74 0.91,2.67 2.01,4.5 3.22,5.38 1.16,0.92 4.93,2.71 11.2,5.38 4.5,1.88 6.81,4.78 6.81,8.64 0,6.8 -5.42,11.76 -16.18,14.89 -10.71,3.08 -28.17,4.64 -52.26,4.64 -21.17,0 -36.81,-1.61 -46.91,-4.74 -9.12,-2.85 -13.75,-7.31 -13.75,-13.33 0,-5.1 3.53,-9.1 10.53,-11.99 3.47,-1.43 5.78,-2.85 7.06,-4.32 1.22,-1.42 2.49,-4.04 3.65,-7.9 2.13,-7.54 3.22,-16.82 3.22,-27.76 0,-5.65 -1.09,-9.15 -3.29,-10.48 -2.25,-1.38 -7.97,-2.02 -17.22,-2.02 -21.29,0 -34.8,0.87 -40.64,2.67 -2.37,0.74 -3.89,2.85 -4.44,6.34 -0.73,4.32 -1.09,9.61 -1.09,15.9 0,10.2 1.88,17.56 5.72,22.06 1.28,1.43 4.38,3.26 9.25,5.52 4.99,2.16 7.48,5.7 7.48,10.66 0,6.25 -5.78,11.08 -17.28,14.38 -11.5,3.31 -27.99,5.01 -49.34,5.01 -19.53,0 -35.41,-1.56 -47.82,-4.6 -5.29,-1.33 -9.49,-3.26 -12.53,-5.74 -3.04,-2.43 -4.56,-5.15 -4.56,-8.13 0,-2.94 0.98,-5.24 2.86,-6.85 1.89,-1.61 6.08,-3.68 12.47,-6.21 3.35,-1.24 5.66,-2.85 7.06,-4.82 1.34,-1.98 2.37,-5.33 3.1,-9.97 1.76,-10.52 2.68,-24.26 2.68,-41.22 0,-3.12 -0.06,-6.85 -0.19,-11.17 -0.48,-21.55 -0.73,-33.82 -0.73,-36.9 0.12,-7.72 -0.73,-12.77 -2.55,-15.26 -1.82,-2.48 -6.69,-5.19 -14.54,-8.13 -5.23,-1.88 -7.85,-4.73 -7.85,-8.5 0,-9.05 11.68,-15.35 34.92,-18.84 13.57,-2.07 27.5,-3.12 41.74,-3.12z"/>
      <path id="1" fill="#04A96D" fill-rule="nonzero" d="M926.13 353.22l-12.84 0c-7.48,0 -15.88,0.28 -25.13,0.83 -5.84,0.32 -9.86,0.51 -12.11,0.51 -7.97,0 -14.48,-1.38 -19.47,-4.18 -4.99,-2.76 -7.48,-6.39 -7.48,-10.89 0,-3.12 1.1,-5.56 3.29,-7.31 2.19,-1.79 5.84,-3.17 10.83,-4.27 4.75,-0.87 7.91,-2.34 9.61,-4.37 1.64,-2.02 2.98,-5.93 3.89,-11.76 0.97,-6.75 1.82,-19.85 2.62,-39.34 0.73,-19.49 1.15,-38.83 1.15,-58.04 0,-7.54 -0.79,-12.55 -2.31,-15.07 -1.58,-2.48 -5.17,-4.5 -10.89,-6.02 -8.21,-2.35 -12.29,-6.34 -12.29,-12 0,-4.41 2.8,-7.86 8.46,-10.29 5.66,-2.48 13.51,-3.72 23.6,-3.72 3.35,0 7.24,0.04 11.81,0.14 9.98,0.28 17.21,0.41 21.72,0.41 16.97,0 36.2,-0.41 57.55,-1.24 4.5,-0.14 10.16,-0.23 16.98,-0.23 27.2,0 48.67,2.3 64.49,6.98 23.54,6.99 41.25,18.75 53.11,35.25 10.59,14.57 15.88,31.89 15.88,51.98 0,10.16 -1.95,20.31 -5.9,30.51 -3.89,10.2 -9.19,19.03 -15.88,26.47 -13.75,15.07 -32.79,25.64 -57.01,31.76 -14.24,3.58 -29.45,5.38 -45.63,5.38l-21.6 -0.51 -18.49 -0.41c-14.42,-0.37 -27.07,-0.55 -37.96,-0.55zm37.42 -145.96l0 104.23c0,5.65 1.58,9.65 4.81,12.04 3.23,2.39 8.58,3.59 16.06,3.59 34.68,0 52.02,-19.94 52.02,-59.79 0,-22.01 -4.01,-39.06 -12.11,-51.15 -8.88,-13.37 -24.03,-20.08 -45.27,-20.08 -5.72,0 -9.73,0.87 -12.05,2.57 -2.31,1.7 -3.47,4.55 -3.47,8.59z"/>
      <path id="2" fill="#04A96D" fill-rule="nonzero" d="M1219.99 169.44l93.94 0c10.1,-0.28 19.35,-1.29 27.62,-3.08 3.59,-0.74 6.76,-1.1 9.49,-1.1 9.61,0 18.98,5.38 28.05,16.18 9.06,10.75 13.63,21.83 13.63,33.22 0,7.81 -3.16,13.51 -9.43,17.1 -4.74,2.71 -10.47,4.04 -17.1,4.04 -6.33,0 -11.8,-1.33 -16.43,-3.95 -4.62,-2.67 -9.19,-7.03 -13.75,-13.14 -3.9,-5.56 -7,-9.19 -9.25,-10.89 -2.25,-1.7 -4.99,-2.57 -8.21,-2.57 -4.38,0 -7.54,1.42 -9.43,4.18 -1.89,2.8 -2.86,7.35 -2.86,13.74l0 75.37c0,7.72 1.09,13.37 3.22,16.87 2.13,3.49 6.15,6.16 12.11,8.09 6.45,2.02 10.77,4 13.08,5.84 2.37,1.84 3.53,4.37 3.53,7.63 0,6.43 -5.84,11.26 -17.4,14.38 -11.56,3.12 -29.39,4.69 -53.42,4.73 -29.45,-0.04 -51.29,-1.88 -65.59,-5.56 -11.98,-3.03 -18.01,-7.95 -18.01,-14.8 0,-3.68 2.19,-6.53 6.45,-8.59 1.04,-0.46 5.29,-1.56 12.66,-3.26 4.5,-0.96 7.61,-2.85 9.37,-5.65 1.71,-2.76 3.1,-8.13 4.2,-15.99 0.91,-7.03 1.82,-18.34 2.68,-34.01 0.79,-15.67 1.21,-29.23 1.21,-40.72 0,-8.09 -0.85,-13.83 -2.49,-17.23 -1.64,-3.45 -4.38,-5.15 -8.21,-5.15 -4.62,0 -9.12,2.53 -13.51,7.54 -7.97,9.19 -14.54,15.21 -19.65,18.2 -6.02,3.49 -11.92,5.24 -17.64,5.24 -6.39,0 -11.68,-1.79 -15.82,-5.47 -4.2,-3.63 -6.27,-8.27 -6.27,-13.92 0,-5.56 1.64,-11.67 4.99,-18.38 3.35,-6.66 7.79,-12.82 13.39,-18.47 9,-9.19 17.94,-13.74 26.71,-13.74 2.37,0 5.11,0.28 8.21,0.78 6.39,1.01 11.68,1.65 15.76,2.02 4.14,0.37 8.82,0.55 14.18,0.55z"/>
     </g>
    </g>
   </g>
  </g>
 </g>
</svg>
